<?xml version="1.0" encoding="UTF-8" standalone="no"?>
<!-- Created with Inkscape (http://www.inkscape.org/) -->

<svg
   version="1.1"
   id="svg374"
   width="628"
   height="600"
   viewBox="0 0 628 600"
   xmlns="http://www.w3.org/2000/svg"
   xmlns:svg="http://www.w3.org/2000/svg">
  <defs
     id="defs378" />
  <g
     id="g380">
    <path
       style="fill:#00ff00;fill-opacity:1;stroke-width:1.37924"
       d="m 195.1661,568.51177 v -22.75739 h 118.61423 118.61423 v 22.75739 22.75738 H 313.78033 195.1661 Z m 0,-84.82297 v -34.48089 h 118.61423 118.61423 v 34.48089 34.48088 H 313.78033 195.1661 Z m -0.33192,-130.68255 -0.35769,-68.61696 -68.05249,-0.35788 -68.052478,-0.35787 6.948891,-7.91754 c 3.821889,-4.35463 10.980906,-12.26212 15.908928,-17.57218 4.928007,-5.31005 12.253319,-13.26252 16.278438,-17.67214 4.025131,-4.40962 10.887191,-11.81649 15.249021,-16.45971 4.36183,-4.64322 7.9306,-8.94871 7.9306,-9.56776 0,-0.61904 0.84405,-1.12554 1.87566,-1.12554 1.03162,0 3.04875,-1.60936 4.48252,-3.57635 1.43377,-1.967 6.02046,-7.21051 10.19264,-11.65225 4.17219,-4.44173 10.99941,-11.82716 15.1716,-16.41205 4.17218,-4.58488 14.10268,-15.14812 22.06776,-23.47386 7.96508,-8.32576 17.89557,-18.88997 22.06776,-23.47605 4.17219,-4.58607 10.99939,-11.99135 15.17157,-16.45618 4.17219,-4.46483 8.75888,-9.73207 10.19265,-11.70498 1.43377,-1.9729 3.40908,-3.5871 4.38957,-3.5871 0.9805,0 2.16662,-1.20956 2.63583,-2.68792 0.46921,-1.478351 2.06268,-3.071831 3.54103,-3.541041 1.47836,-0.4692 2.68792,-1.38775 2.68792,-2.0412 0,-0.65344 2.01714,-3.37662 4.48252,-6.05151 2.46538,-2.67488 7.89612,-8.60118 12.06831,-13.16956 15.9244,-17.436564 23.48695,-25.650876 24.67115,-26.797352 2.91197,-2.819184 7.87126,-7.782666 9.4267,-9.434645 0.92719,-0.984746 2.33575,-2.41111 3.13012,-3.16969 3.4974,-3.339818 19.78995,-22.158049 22.49663,-25.984048 1.66468,-2.3530987 2.08961,-2.1081877 5.8608,3.378037 4.25866,6.195387 9.73204,12.281511 30.27145,33.660348 6.82722,7.106248 15.69198,16.525625 19.69947,20.931965 19.63665,21.590975 27.62796,30.099415 34.72815,36.975466 1.72705,1.67253 14.51091,15.51705 24.87841,26.94255 4.17219,4.59794 11.15457,12.12017 15.5164,16.71603 4.36183,4.59587 7.9306,8.91077 7.9306,9.58868 0,0.67789 0.77582,1.26124 1.72405,1.29631 0.94822,0.035 2.96535,1.6021 4.48251,3.48226 1.51716,1.88016 6.17208,7.08793 10.34427,11.57283 4.17218,4.4849 10.87411,11.76223 14.89316,16.17185 17.46277,19.15978 20.75786,22.49946 22.19901,22.49946 0.83953,0 1.52641,0.53384 1.52641,1.18631 0,0.65248 2.20755,3.60059 4.90567,6.55137 16.42586,17.96407 20.00785,21.87131 27.27148,29.74779 4.4223,4.79541 13.42181,14.14482 19.99891,20.77648 l 11.95839,12.05757 -68.61696,0.011 -68.61696,0.011 v 68.96176 68.96177 H 313.79321 195.19185 Z"
       id="path402" />
  </g>
</svg>
