<?xml version="1.0" encoding="UTF-8" standalone="no"?>
<!-- Created with Inkscape (http://www.inkscape.org/) -->

<svg
   width="188.2014mm"
   height="188.58067mm"
   viewBox="0 0 188.2014 188.58067"
   version="1.1"
   id="svg5"
   xmlns="http://www.w3.org/2000/svg"
   xmlns:svg="http://www.w3.org/2000/svg">
  <defs
     id="defs2" />
  <g
     id="layer1"
     transform="translate(-10.899303,-54.209663)">
    <path
       style="fill:#666666;fill-opacity:1;stroke-width:0.264583"
       d="m 92.145444,239.64858 -6.87916,-3.16319 -2.77813,-6.89293 -2.77812,-6.89293 -1.32292,0.153 c -0.7276,0.0841 -1.59081,0.15403 -1.91823,0.15529 l -0.59531,0.002 v 7.54063 7.54062 l -0.59531,-0.0104 c -0.36988,-0.006 -2.77134,-1.79009 -6.34162,-4.71003 -3.16048,-2.58478 -5.83589,-4.78918 -5.94538,-4.89866 -0.10948,-0.10949 -0.62118,-3.67522 -1.13709,-7.92384 l -0.93803,-7.72476 h -1.9685 -1.96851 l -0.34202,1.18132 c -0.18812,0.64973 -0.63612,2.61426 -0.99558,4.36563 -1.58207,7.7084 -1.87427,8.74055 -2.47437,8.74055 -0.42272,0 -1.61065,-1.45706 -4.9224,-6.03759 -3.63873,-5.03279 -4.34371,-6.15564 -4.23599,-6.74688 0.14457,-0.79349 1.7023,-14.72574 1.7023,-15.22529 0,-0.17534 -0.56555,-0.52936 -1.25677,-0.7867 -1.01239,-0.3769 -1.29753,-0.40087 -1.46635,-0.12321 -0.59884,0.98489 -3.10839,5.30843 -5.15244,8.87682 -1.8498,3.22927 -2.42416,4.03437 -2.87854,4.0349 -0.49502,5.3e-4 -0.90976,-0.85407 -3.2417,-6.68007 -1.47073,-3.6744 -2.67262,-6.85932 -2.67086,-7.0776 0.002,-0.21828 1.24304,-3.6711 2.75842,-7.67292 l 2.75524,-7.27604 -1.15497,-1.12448 c -0.63524,-0.61818 -1.26529,-1.1242 -1.4001,-1.1242 -0.13482,0 -2.49324,2.35148 -5.24093,5.22552 -3.09368,3.23594 -5.22245,5.2574 -5.59111,5.30924 -0.32742,0.0461 -0.59531,-0.0275 -0.59531,-0.16335 0,-0.13588 -0.35497,-3.59156 -0.78883,-7.67928 l -0.78884,-7.43221 4.66321,-6.38629 4.66321,-6.3863 -1.29874,-1.29873 -1.29873,-1.29873 -4.36158,2.76536 c -2.39886,1.52096 -5.05472,3.18824 -5.90189,3.70507 -1.50844,0.92025 -2.39379,1.15927 -2.66551,0.71962 -0.25673,-0.41539 1.65998,-14.94355 2.01386,-15.26463 0.18693,-0.16961 2.89973,-2.30899 6.02842,-4.75417 3.1287,-2.44519 5.79377,-4.53933 5.92239,-4.65365 0.21382,-0.19006 -0.56549,-1.75141 -1.49167,-2.98857 -0.35696,-0.47682 -0.63076,-0.41052 -6.83306,1.6546 -3.55366,1.18322 -6.66253,2.15089 -6.9086,2.15037 -0.24608,-5.3e-4 -0.5272,-0.13006 -0.62472,-0.28785 -0.0975,-0.15779 1.16941,-3.48574 2.81541,-7.39544 l 2.99272,-7.10855 7.02471,-2.94602 c 3.86358,-1.62032 7.11922,-3.03628 7.23474,-3.14658 0.11552,-0.11031 0.12865,-0.99496 0.0292,-1.9659 -0.15345,-1.49774 -0.2655,-1.78612 -0.73921,-1.90239 -0.30708,-0.0754 -2.93959,0.0447 -5.85,0.2669 -2.91042,0.22218 -5.97628,0.40482 -6.81302,0.40587 -1.35639,0.002 -1.52136,-0.0567 -1.52136,-0.53876 0,-0.29737 1.91061,-3.0564 4.2458,-6.13118 2.33519,-3.07478 4.33925,-5.75749 4.45346,-5.96158 0.14805,-0.26455 2.38798,-0.65951 7.80332,-1.37592 4.17761,-0.55266 7.66491,-1.0741 7.74957,-1.15876 0.27889,-0.27889 -0.20464,-4.1012 -0.53485,-4.227907 -0.17515,-0.0672 -3.17218,-0.56686 -6.66007,-1.11034 -3.48788,-0.54347 -6.49043,-1.02969 -6.67233,-1.08049 -0.49269,-0.13759 -0.39964,-1.26104 0.13229,-1.59727 0.25466,-0.16096 3.05627,-2.268871 6.22579,-4.684241 l 5.76276,-4.39157 6.93724,0.77705 c 3.81548,0.42738 7.38711,0.84172 7.93696,0.92076 0.97873,0.1407 1.0107,0.11815 1.52136,-1.07318 0.28689,-0.66929 0.52162,-1.37913 0.52162,-1.57743 0,-0.19829 -1.23201,-1.02138 -2.73779,-1.82907 -9.24821,-4.96069 -9.69763,-5.23245 -9.69763,-5.86432 0,-0.50864 0.80786,-0.90154 6.72254,-3.26954 l 6.72254,-2.69143 7.06482,2.66376 c 3.88565,1.46507 7.207,2.66376 7.38077,2.66376 0.17377,0 0.71547,-0.41221 1.20379,-0.91602 l 0.88784,-0.91602 -3.41563,-3.61183 c -1.87859,-1.98651 -4.21872,-4.46156 -5.20028,-5.50013 -2.02178,-2.13919 -2.20567,-2.72085 -0.92732,-2.93319 2.20687,-0.36658 13.34689,-1.49458 13.82012,-1.39937 0.29344,0.059 3.24151,2.0398 6.55126,4.4017 l 6.01773,4.29437 1.32446,-1.1168 c 0.72845,-0.61424 1.32445,-1.17719 1.32445,-1.25102 0,-0.0738 -0.64042,-1.27557 -1.42315,-2.67056 -0.78273,-1.39498 -2.21797,-3.95161 -3.18942,-5.68138 -0.97145,-1.72977 -1.70399,-3.30735 -1.62786,-3.50573 0.0761,-0.19838 0.46956,-0.36045 0.87431,-0.36017 1.65934,10e-4 13.429936,1.3629 13.559926,1.56873 0.85344,1.35136 9.75506,11.65482 10.05614,11.63979 0.86495,-0.0432 2.2527,-0.71631 2.20006,-1.06714 -0.0304,-0.20236 -0.71497,-3.2703 -1.52135,-6.81762 -1.61807,-7.11799 -1.69483,-7.70738 -1.00313,-7.70178 0.25466,0.002 3.43575,1.28747 7.06908,2.85648 l 6.60607,2.85274 3.21181,6.86695 3.21181,6.86696 1.52514,-0.0541 c 0.83883,-0.0298 1.58375,-0.11273 1.65537,-0.18435 0.0716,-0.0716 0.22825,-3.26196 0.34807,-7.08963 0.11982,-3.82766 0.22538,-6.98916 0.23457,-7.02554 0.009,-0.0364 0.26809,-0.0661 0.57531,-0.0661 0.49343,0 11.59667,8.5778 11.62157,8.97823 0.005,0.0824 0.51954,3.42411 1.14313,7.42594 l 1.13381,7.27604 1.78737,-0.0421 c 0.98305,-0.0232 1.84393,-0.0987 1.91307,-0.16784 0.0692,-0.0691 0.4771,-1.41941 0.90657,-3.00058 0.42947,-1.58118 1.20785,-4.36315 1.72974,-6.18216 0.52188,-1.81901 1.00589,-3.51565 1.07556,-3.77031 0.0732,-0.26751 0.37051,-0.45706 0.70416,-0.4489 0.4431,0.0109 1.557,1.37567 4.78679,5.86509 l 4.20931,5.85096 -0.72621,7.66521 c -0.80126,8.457411 -0.87232,7.860621 1.00474,8.438231 1.22361,0.37654 0.65961,1.08293 4.78902,-5.998061 2.47411,-4.2425 3.28492,-5.43121 3.70417,-5.43059 0.44297,5.3e-4 1.05677,1.12754 3.5133,6.45006 1.63711,3.547091 2.97657,6.635811 2.97657,6.863821 0,0.22801 -1.25016,3.483467 -2.77813,7.234347 -1.52797,3.75089 -2.77598,6.88283 -2.77335,6.95986 0.003,0.077 0.47967,0.53441 1.0601,1.01639 l 1.05534,0.87632 5.16968,-4.71278 c 3.41124,-3.10975 5.36749,-4.71278 5.75121,-4.71278 0.56022,0 0.61815,0.26367 1.58152,7.19849 l 1,7.19848 -4.50402,6.2629 c -2.47721,3.44459 -4.50402,6.34533 -4.50402,6.44608 0,0.3428 1.89191,2.39509 2.20792,2.39509 0.17304,0 2.15806,-1.14591 4.41116,-2.54646 6.9263,-4.30548 7.48286,-4.62358 7.84584,-4.48429 0.50344,0.19319 0.42835,1.93222 -0.39452,9.13645 l -0.70894,6.20675 -6.11983,5.03684 -6.11983,5.03684 0.75436,1.32412 c 0.4149,0.72827 0.90663,1.35428 1.09275,1.39114 0.28967,0.0574 4.42714,-1.13282 6.95297,-2.00009 0.43656,-0.1499 1.56765,-0.46258 2.51354,-0.69485 0.94588,-0.23227 2.22519,-0.56411 2.84289,-0.73742 0.85055,-0.23864 1.19742,-0.2408 1.42933,-0.009 0.33088,0.33089 0.49744,-0.12657 -3.36788,9.25 l -2.09497,5.08201 -5.02708,2.30045 c -2.7649,1.26524 -6.00758,2.75006 -7.20597,3.29959 l -2.17888,0.99916 0.58766,1.63326 0.58765,1.63326 3.97248,-0.0611 c 2.18486,-0.0336 5.43099,-0.0457 7.21362,-0.0268 3.10357,0.0328 3.24115,0.0578 3.24115,0.58898 0,0.40834 -6.4004,8.98056 -8.72818,11.68989 -0.0974,0.11332 -3.67999,0.6491 -7.9614,1.19062 l -7.78438,0.98459 v 2.24338 2.24339 l 2.38125,0.58179 c 1.30969,0.31999 2.86493,0.59039 3.45609,0.60089 0.59117,0.0105 2.09197,0.3629 3.33512,0.78311 1.24315,0.42021 2.76055,0.84854 3.37201,0.95185 2.01201,0.33993 1.5309,0.93823 -4.5495,5.65774 -5.12883,3.98091 -5.57385,4.26773 -6.61458,4.26313 -0.6137,-0.003 -4.03284,-0.29936 -7.5981,-0.65921 -3.56526,-0.35985 -6.74776,-0.65529 -7.07223,-0.65653 -0.42579,-0.002 -0.74463,0.30099 -1.14591,1.08757 -0.30579,0.59939 -0.45704,1.17584 -0.33611,1.28098 0.36055,0.31349 11.68797,7.15497 12.12261,7.32176 0.66796,0.25632 0.49135,1.39846 -0.26044,1.68429 -0.87337,0.33206 -10.26886,4.41592 -11.71457,5.09189 l -1.1306,0.52863 -7.07148,-2.94564 c -3.88931,-1.62011 -7.24557,-2.94421 -7.45834,-2.94244 -0.21277,0.002 -0.89617,0.50306 -1.51866,1.11399 l -1.13181,1.11078 2.43497,2.52724 c 1.33922,1.38999 3.65973,3.78866 5.15668,5.33038 3.05067,3.14192 3.33173,3.80074 1.72954,4.05416 -2.2397,0.35426 -11.85839,1.47708 -12.65344,1.47708 -0.68034,0 -2.13742,-0.89938 -7.07271,-4.36562 -3.41871,-2.4011 -6.3662,-4.36563 -6.54998,-4.36563 -0.4817,0 -2.6296,1.29959 -2.6296,1.59103 0,0.1352 0.53578,1.15205 1.19062,2.25967 0.65484,1.10762 1.19063,2.0599 1.19063,2.11617 0,0.0563 0.57528,1.08823 1.2784,2.29324 3.42158,5.86388 3.78739,6.81555 2.6242,6.827 -0.32742,0.003 -3.72432,-0.3177 -7.54866,-0.71316 l -6.95335,-0.71903 -4.82061,-5.95244 c -2.65135,-3.27384 -4.904226,-6.07614 -5.006416,-6.22732 -0.11965,-0.17701 -0.71419,-0.0157 -1.66986,0.45298 -1.12871,0.55357 -1.45111,0.8375 -1.34642,1.18579 0.53194,1.76979 3.598956,13.68224 3.598956,13.97855 0,0.73509 -1.293366,0.28067 -8.069796,-2.83527 z"
       id="path1079" />
    <circle
       style="fill:#aaaaaa;fill-opacity:1;stroke-width:0.214535"
       id="path4554"
       cx="105"
       cy="148.5"
       r="62.5" />
    <circle
       style="fill:#ffffff;fill-opacity:1;stroke-width:0.264583"
       id="path5108"
       cx="105"
       cy="148.5"
       r="18" />
  </g>
</svg>
